<?xml version="1.0" standalone="no"?>
<!DOCTYPE svg PUBLIC "-//W3C//DTD SVG 20010904//EN"
 "http://www.w3.org/TR/2001/REC-SVG-20010904/DTD/svg10.dtd">
<svg version="1.0" xmlns="http://www.w3.org/2000/svg"
 width="500.000000pt" height="500.000000pt" viewBox="0 0 500.000000 500.000000"
 preserveAspectRatio="xMidYMid meet">
<metadata>
Created by potrace 1.15, written by Peter Selinger 2001-2017
</metadata>
<g transform="translate(0.000000,500.000000) scale(0.100000,-0.100000)"
fill="#000000" stroke="none">
<path d="M2120 3545 c0 -23 4 -25 43 -25 l43 0 78 -240 c73 -228 78 -240 102
-240 23 0 24 -3 18 -35 -5 -30 -2 -39 24 -65 32 -32 74 -39 103 -17 26 20 41
58 35 88 -5 29 -5 29 43 29 46 0 48 -1 43 -25 -7 -40 6 -74 38 -90 40 -21 65
-19 93 8 20 18 26 35 31 89 l7 68 -213 2 -212 3 -7 27 -7 28 195 2 195 3 49
160 c27 88 49 161 49 162 0 2 -134 4 -297 5 l-298 3 -15 43 -14 42 -63 0 c-61
0 -63 -1 -63 -25z"/>
<path d="M1057 2553 c-4 -3 -7 -33 -7 -65 l0 -58 80 0 80 0 0 -215 0 -215 90
0 90 0 0 215 0 215 75 0 75 0 0 65 0 65 -238 0 c-131 0 -242 -3 -245 -7z"/>
<path d="M1580 2280 l0 -281 88 3 87 3 0 275 0 275 -87 3 -88 3 0 -281z"/>
<path d="M1810 2280 l0 -280 220 0 220 0 0 65 0 65 -130 0 -130 0 0 40 0 39
78 3 77 3 3 63 3 62 -81 0 -80 0 0 45 0 44 128 3 127 3 0 60 0 60 -217 3 -218
2 0 -280z"/>
<path d="M2297 2554 c-4 -4 -7 -130 -7 -281 l0 -273 75 0 74 0 3 138 3 137
100 -137 100 -137 73 -1 72 0 0 280 0 280 -70 0 -70 0 0 -137 0 -138 -52 74
c-29 41 -73 101 -98 135 l-45 61 -76 3 c-41 1 -78 0 -82 -4z"/>
<path d="M2847 2553 c-4 -3 -7 -129 -7 -280 l0 -273 153 0 c172 0 218 10 281
62 57 47 86 116 86 207 0 93 -14 141 -58 191 -64 76 -145 100 -331 100 -65 0
-121 -3 -124 -7z m258 -137 c51 -22 69 -57 69 -136 0 -96 -33 -140 -116 -155
l-38 -7 0 156 0 156 25 0 c14 0 41 -6 60 -14z"/>
<path d="M3561 2538 c-46 -121 -181 -513 -181 -524 0 -12 14 -14 77 -12 l77 3
15 48 15 48 84 -3 84 -3 17 -45 17 -45 92 -3 c55 -2 92 1 92 7 0 18 -181 525
-192 538 -7 9 -39 13 -99 13 -84 0 -90 -1 -98 -22z"/>
<path d="M2210 1575 l0 -105 30 0 c28 0 30 2 30 40 0 29 4 40 15 40 8 0 22
-18 31 -40 14 -34 21 -40 45 -40 34 0 35 7 12 55 -16 33 -16 36 2 49 25 18 25
74 0 92 -12 9 -46 14 -92 14 l-73 0 0 -105z"/>
<path d="M2410 1618 c0 -124 34 -170 112 -154 59 12 68 29 68 128 0 87 0 88
-25 88 -25 0 -25 -1 -25 -80 0 -65 -3 -82 -16 -87 -35 -13 -49 10 -52 91 l-3
76 -29 0 -30 0 0 -62z"/>
<path d="M2610 1660 c0 -16 7 -20 30 -20 l30 0 0 -85 0 -85 30 0 30 0 0 85 0
85 30 0 c23 0 30 4 30 20 0 19 -7 20 -90 20 -83 0 -90 -1 -90 -20z"/>
</g>
</svg>
