<?xml version="1.0" standalone="no"?>
<!DOCTYPE svg PUBLIC "-//W3C//DTD SVG 20010904//EN"
 "http://www.w3.org/TR/2001/REC-SVG-20010904/DTD/svg10.dtd">
<svg version="1.0" xmlns="http://www.w3.org/2000/svg"
 width="500.000000pt" height="500.000000pt" viewBox="0 0 500.000000 500.000000"
 preserveAspectRatio="xMidYMid meet">

<g transform="translate(0.000000,500.000000) scale(0.100000,-0.100000)"
fill="#000000" stroke="none">
<path d="M1860 4146 l0 -45 72 -3 72 -3 86 -265 c47 -146 105 -327 129 -402
l44 -138 43 0 42 0 -5 -58 c-9 -99 44 -162 136 -162 92 0 149 69 137 167 l-6
53 79 0 79 0 -5 -58 c-4 -43 -1 -67 11 -91 49 -93 198 -94 248 0 20 38 23 90
7 120 -9 17 -7 21 10 26 17 4 21 13 21 49 l0 44 -364 0 -364 0 -15 44 c-14 40
-14 45 0 50 8 3 158 6 332 6 l318 0 82 270 c45 148 84 276 87 285 5 13 -53 15
-507 17 l-514 3 -22 65 -21 65 -106 3 -106 3 0 -45z m397 -198 c15 -19 52
-136 45 -142 -3 -3 -27 -6 -53 -6 l-47 0 -21 62 c-31 91 -29 98 23 98 24 0 48
-6 53 -12z m250 -62 c12 -39 23 -74 23 -78 0 -5 -28 -8 -62 -6 l-61 3 -23 69
c-13 38 -21 73 -18 78 3 5 31 8 61 6 l56 -3 24 -69z m220 9 c34 -93 33 -95
-36 -95 l-59 0 -26 71 c-14 39 -23 75 -20 80 3 6 31 9 62 7 l57 -3 22 -60z
m283 51 c0 -8 -9 -44 -20 -80 l-21 -66 -58 0 -59 0 -21 62 c-34 101 -37 98 79
98 79 0 100 -3 100 -14z m-649 -291 c29 -83 28 -86 -37 -83 l-56 3 -19 59
c-10 33 -16 64 -13 68 3 5 29 8 57 6 l50 -3 18 -50z m226 -10 c12 -33 22 -63
22 -67 1 -5 -27 -8 -62 -8 l-63 0 -21 64 c-11 36 -18 68 -15 71 4 3 31 5 62 3
l55 -3 22 -60z m222 3 c12 -34 21 -66 21 -70 0 -5 -28 -8 -62 -6 l-61 3 -18
50 c-29 83 -28 85 40 85 l59 0 21 -62z m124 55 c7 -11 -11 -53 -22 -53 -10 0
-22 40 -15 52 6 10 31 11 37 1z m-419 -459 c32 -31 11 -84 -32 -84 -35 0 -52
17 -52 52 0 43 53 64 84 32z m421 -4 c27 -29 10 -74 -28 -78 -36 -4 -57 13
-57 49 0 47 53 65 85 29z"/>
<path d="M42 2363 l3 -98 128 -3 127 -3 0 -357 c0 -196 4 -363 8 -370 7 -9 42
-12 143 -10 l134 3 3 367 2 367 133 3 132 3 0 95 0 95 -408 3 -408 2 3 -97z"/>
<path d="M936 2444 c-3 -9 -6 -212 -6 -453 0 -336 3 -441 13 -454 11 -15 29
-17 142 -15 l130 3 3 468 2 467 -139 0 c-117 0 -140 -2 -145 -16z"/>
<path d="M1332 1993 l3 -468 365 0 365 0 0 100 0 100 -220 3 c-160 2 -221 6
-227 15 -10 16 -10 118 0 134 5 8 49 13 137 15 l130 3 0 100 0 100 -130 3
c-88 2 -132 7 -137 15 -12 19 -9 112 5 130 10 15 39 17 222 19 l210 3 3 98 3
97 -366 0 -365 0 2 -467z"/>
<path d="M2156 2444 c-3 -8 -6 -215 -6 -459 0 -366 2 -445 14 -454 9 -8 50
-11 117 -9 l104 3 5 250 5 250 169 -230 c93 -127 178 -240 190 -253 19 -21 27
-22 126 -20 l105 3 3 468 2 467 -115 0 -115 0 0 -226 c0 -148 -3 -225 -10
-222 -6 2 -82 102 -169 223 l-158 220 -130 3 c-113 2 -132 0 -137 -14z"/>
<path d="M3096 2445 c-11 -29 -7 -884 4 -906 10 -18 23 -19 223 -19 146 0 233
5 280 15 221 47 348 193 364 420 14 197 -70 366 -220 442 -104 52 -126 56
-393 60 -228 4 -252 3 -258 -12z m432 -197 c50 -15 98 -63 119 -116 22 -56 24
-207 4 -265 -30 -87 -107 -140 -206 -141 l-60 -1 -3 260 c-1 143 0 265 2 272
6 14 87 9 144 -9z"/>
<path d="M4326 2428 c-45 -109 -306 -863 -306 -883 l0 -26 117 3 118 3 30 85
30 85 152 3 151 3 12 -38 c7 -21 21 -62 32 -90 l19 -53 140 0 c114 0 141 3
145 15 6 15 -287 862 -312 903 -14 21 -20 22 -165 22 l-150 0 -13 -32z m189
-378 c19 -57 35 -110 35 -117 0 -10 -22 -13 -85 -13 -66 0 -85 3 -85 14 0 7
11 45 25 82 14 38 33 89 41 112 10 25 20 40 25 35 5 -5 25 -56 44 -113z"/>
<path d="M2030 785 l0 -175 40 0 40 0 0 76 0 75 32 -3 c30 -3 34 -8 59 -73 26
-70 26 -70 68 -73 24 -2 41 1 41 8 0 6 -14 41 -31 78 l-30 67 25 20 c37 29 51
78 36 116 -20 47 -55 59 -175 59 l-105 0 0 -175z m181 115 c23 -13 25 -53 3
-70 -8 -8 -34 -14 -57 -14 l-42 -1 -3 48 -3 47 41 0 c23 0 50 -5 61 -10z"/>
<path d="M2372 814 l3 -146 34 -30 c32 -29 37 -30 107 -26 65 3 77 7 101 31
28 27 28 29 31 172 l3 145 -35 0 -36 0 0 -126 c0 -69 -4 -134 -10 -144 -19
-35 -88 -33 -112 4 -4 6 -8 68 -8 139 l0 127 -41 0 -40 0 3 -146z"/>
<path d="M2700 936 c0 -23 4 -25 53 -28 l52 -3 3 -147 3 -148 39 0 39 0 3 148
3 147 48 3 c42 3 47 5 47 28 l0 24 -145 0 -145 0 0 -24z"/>
</g>
</svg>
